<svg width="250" height="250" viewBox="0 0 250 250" fill="none" xmlns="http://www.w3.org/2000/svg">
<path fill-rule="evenodd" clip-rule="evenodd" d="M161 129.003C161 129.003 161 129.002 161 129.002C161 109.396 145.106 93.502 125.5 93.502C105.894 93.502 90 109.396 90 129.002C90 129.002 90 129.003 90 129.003H119.954C119.954 129.003 119.954 129.002 119.954 129.002C119.954 125.939 122.437 123.455 125.501 123.455C128.564 123.455 131.047 125.939 131.047 129.002C131.047 129.002 131.047 129.003 131.047 129.003H161ZM126.452 99.7019C128.838 99.8221 130.71 101.114 130.634 102.588C130.558 104.061 128.563 105.16 126.177 105.04C123.792 104.921 121.92 103.629 121.996 102.155C122.072 100.68 124.068 99.5831 126.452 99.7019ZM99.4068 115.057C100.14 112.783 101.873 111.31 103.277 111.765C104.68 112.219 105.225 114.43 104.492 116.704C103.76 118.977 102.027 120.451 100.623 119.996C99.2181 119.541 98.6749 117.329 99.4068 115.057ZM147.889 115.48C149.293 115.025 151.026 116.498 151.759 118.772C152.491 121.045 151.948 123.257 150.543 123.712C149.139 124.166 147.406 122.692 146.674 120.419C145.941 118.146 146.486 115.935 147.889 115.48Z" fill="#FBCA16"/>
<path d="M119.884 54.1239C96.7731 55.7712 75.7302 68.1318 62.8087 87.6473C55.2012 99.1151 50.8773 112.658 50.4387 126.351L50.351 128.967H55.1636H59.9763L60.0515 128.678C60.0891 128.514 60.1267 127.697 60.1267 126.854C60.1392 125.031 60.3147 122.843 60.6656 120.19C63.1471 101.605 73.5244 85.0192 89.2533 74.4819C97.3747 69.0372 106.862 65.466 116.65 64.1583C122.629 63.3661 129.284 63.4541 135.4 64.4098C144.85 65.881 154.375 69.7413 162.358 75.3244C169.778 80.5176 176.282 87.5215 181.007 95.368C186.647 104.774 189.818 115.512 190.232 126.653L190.319 128.967H195.157H199.995L199.945 127.156C199.518 114.418 196.385 102.95 190.369 92.2621C177.949 70.1689 155.49 55.9221 130.249 54.1113C128.043 53.9604 122.127 53.9604 119.884 54.1239Z" fill="#E64D3D"/>
<path d="M122.516 66.8745C108.228 67.5912 95.0059 72.9228 84.4406 82.2278C82.498 83.938 79.2895 87.2199 77.7856 89.0306C68.8621 99.7691 63.8865 112.759 63.335 126.704L63.2473 128.967H68.1978H73.1484L73.211 128.539C73.2486 128.313 73.3113 127.219 73.3489 126.138C73.4492 123.019 73.9254 119.813 74.8153 116.254C77.5349 105.377 83.8891 95.4813 92.6998 88.3767C100.821 81.8506 110.497 77.9651 120.899 77.0723C123.305 76.8711 129.484 76.9843 131.59 77.2735C141.791 78.6693 150.502 82.4793 158.435 89.018C160.052 90.3509 163.987 94.337 165.353 96.0345C172.585 104.988 176.583 115.537 177.072 126.955L177.16 128.979L182.11 128.942L187.048 128.904L187.01 127.257C186.735 113.852 181.884 100.662 173.337 89.9988C162.797 76.8334 147.331 68.5595 130.537 67.0631C128.832 66.9122 124.007 66.799 122.516 66.8745Z" fill="#E46E26"/>
<path d="M121.852 80.1278C105.446 81.3098 90.9327 90.4765 82.711 104.862C78.8885 111.539 76.7704 118.983 76.3819 127.03L76.2816 128.967H81.2321H86.1952V127.747C86.1952 125.194 86.8093 121.271 87.6866 118.178C88.3885 115.764 88.9901 114.217 90.2058 111.74C95.2189 101.492 104.543 93.9093 115.61 91.0675C118.543 90.3256 120.799 90.0239 124.032 89.9358C130.073 89.7724 135.387 90.7909 140.776 93.1423C152.996 98.4864 161.807 110.03 163.762 123.258C163.95 124.503 164.226 127.659 164.226 128.539V128.967H169.101H173.964V127.684C173.964 125.886 173.751 123.585 173.362 121.183C170.053 100.574 153.773 84.1265 133.294 80.7314C132.179 80.5427 130.637 80.329 129.885 80.2535C127.867 80.0523 123.744 79.9895 121.852 80.1278Z" fill="#297982"/>
<path d="M104.819 99.5177C104.769 99.5932 104.794 99.6812 104.857 99.7189C104.907 99.7566 104.97 99.6938 104.97 99.5932C104.97 99.3668 104.92 99.3543 104.819 99.5177Z" fill="black"/>
<path d="M100.195 103.391L99.9438 103.692L100.232 103.441C100.52 103.202 100.596 103.089 100.483 103.089C100.458 103.089 100.332 103.227 100.195 103.391Z" fill="black"/>
<path d="M99.1418 104.447L98.8911 104.749L99.1794 104.497C99.4676 104.258 99.5428 104.145 99.43 104.145C99.405 104.145 99.2796 104.283 99.1418 104.447Z" fill="black"/>
<path d="M144.624 121.888C144.624 121.926 144.724 122.026 144.85 122.127C145.063 122.29 145.063 122.29 144.9 122.076C144.724 121.85 144.624 121.787 144.624 121.888Z" fill="black"/>
<path d="M148.233 136.826C144.862 137.568 142.18 140.183 141.177 143.704C140.751 145.163 140.751 148.067 141.177 149.639C142.318 153.852 145.388 156.505 149.474 156.781C150.677 156.87 152.645 156.656 152.783 156.429C152.833 156.354 152.933 155.273 153.021 154.015C153.121 152.77 153.222 151.525 153.259 151.249L153.334 150.758L152.695 151.048C151.83 151.425 150.301 151.525 149.336 151.236C147.293 150.645 146.178 149.023 146.153 146.596C146.14 145.49 146.166 145.326 146.567 144.521C147.08 143.465 147.908 142.686 148.91 142.308C149.838 141.969 151.379 141.956 152.357 142.296L153.059 142.535L152.971 140.875C152.921 139.957 152.833 138.674 152.795 138.02L152.708 136.826L152.319 136.75C151.617 136.6 149.048 136.65 148.233 136.826Z" fill="#297982"/>
<path d="M156.518 137.153C156.48 137.178 156.468 141.504 156.468 146.747V156.304H158.962H161.468V151.261C161.468 148.281 161.506 146.269 161.581 146.345C161.644 146.408 162.609 148.684 163.712 151.387L165.717 156.304H168.524H171.319L171.056 155.675C170.906 155.335 169.953 153.034 168.938 150.582C167.359 146.735 167.121 146.068 167.233 145.766C167.296 145.565 168.199 143.566 169.214 141.315C170.229 139.077 171.069 137.203 171.069 137.165C171.069 137.09 165.529 137.115 165.479 137.191C165.466 137.203 164.602 139.064 163.574 141.315C162.534 143.566 161.631 145.465 161.569 145.54C161.506 145.603 161.468 143.754 161.468 141.416C161.468 139.077 161.418 137.153 161.368 137.153C160.04 137.115 156.555 137.103 156.518 137.153Z" fill="#297982"/>
<path d="M176.107 137.128L173.838 137.165V146.735V156.304H179.065H184.303L184.88 154.028C185.206 152.77 185.482 151.639 185.519 151.513C185.569 151.299 185.344 151.287 182.198 151.287H178.839V144.232C178.839 137.631 178.814 137.191 178.601 137.14C178.476 137.115 177.348 137.115 176.107 137.128Z" fill="#297982"/>
<path d="M56.467 137.518C56.1788 138.234 50 156.09 50 156.191C50 156.253 51.6544 156.304 53.6596 156.304H57.3318L57.6326 155.147C57.7955 154.518 57.9835 153.801 58.0587 153.562L58.1715 153.135H61.029H63.8865L64.2625 154.568C64.4631 155.348 64.6761 156.065 64.7262 156.153C64.8014 156.266 65.7915 156.304 68.4485 156.279L72.0831 156.241L68.7619 146.735L65.4406 137.228L61.029 137.191L56.6174 137.153L56.467 137.518ZM61.8311 145.678C62.2071 147.049 62.5455 148.294 62.5831 148.42C62.6458 148.621 62.5079 148.646 61.0165 148.646H59.3872L60.1768 145.729C60.6154 144.119 61.0165 142.899 61.0666 143C61.1167 143.088 61.4677 144.295 61.8311 145.678Z" fill="#297982"/>
<path d="M71.0554 139.869V142.572H73.75H76.4571V149.438V156.304H80.1418H83.8265V149.438V142.572H86.5838H89.3536V139.869V137.153H80.2045H71.0554V139.869Z" fill="#297982"/>
<path d="M93.1886 141.768L95.8205 146.383L93.1886 151.048C91.7473 153.613 90.494 155.838 90.4188 156.002L90.2559 156.304H94.0534H97.8508L98.8284 154.418C99.3548 153.386 100.044 152.079 100.345 151.5L100.896 150.469L102.388 153.386L103.892 156.304H107.689C110.685 156.304 111.474 156.266 111.424 156.14C111.386 156.04 110.133 153.814 108.642 151.173L105.922 146.383L107.526 143.591C108.404 142.044 109.594 139.995 110.158 139.026C110.735 138.058 111.198 137.241 111.198 137.216C111.198 137.178 109.469 137.153 107.376 137.153H103.566L102.237 139.819C101.51 141.277 100.896 142.447 100.871 142.422C100.846 142.396 100.232 141.214 99.5052 139.794L98.1767 137.228L94.3667 137.191L90.5567 137.153L93.1886 141.768Z" fill="#297982"/>
<path d="M116.726 146.735V156.304H119.22H121.726V153.814V151.312L122.804 151.224C126.94 150.872 129.146 149.262 129.81 146.068C130.199 144.232 129.973 141.956 129.233 140.372C128.77 139.366 127.717 138.259 126.815 137.832C125.536 137.216 125.06 137.165 120.761 137.165L116.726 137.153V146.735ZM123.957 141.944C124.671 142.434 124.897 142.849 124.972 143.78C125.022 144.484 124.972 144.723 124.722 145.201C124.27 146.081 123.857 146.32 122.704 146.383L121.726 146.433V144.044V141.642H122.616C123.343 141.642 123.606 141.705 123.957 141.944Z" fill="#297982"/>
<path d="M132.906 146.735V156.304H135.412H137.906V146.735V137.153H135.412H132.906V146.735Z" fill="#297982"/>
<path d="M188.314 146.735V156.304H193.503H198.691L198.829 155.813C198.892 155.537 199.193 154.405 199.481 153.298L199.995 151.287H196.648H193.315V150.306V149.312L195.245 149.275L197.187 149.237L197.225 146.697L197.263 144.157H195.282H193.315V143.163V142.17H196.335H199.368L199.293 141.881C199.255 141.717 199.117 140.774 198.967 139.794C198.829 138.825 198.679 137.819 198.629 137.593L198.566 137.153H193.44H188.314V146.735Z" fill="#297982"/>
<path d="M50.6643 179.667L50.6643 195.008L57.595 194.958C65.378 194.907 65.165 194.932 67.2329 193.914C68.8371 193.122 70.0403 191.889 70.8299 190.217C71.1557 189.538 71.5066 188.658 71.5944 188.255C71.82 187.35 71.8074 185.388 71.5944 184.42C71.1683 182.622 70.0278 180.987 68.4987 179.994C68.0977 179.742 67.7718 179.504 67.7718 179.478C67.7718 179.453 68.1102 179.214 68.5363 178.963C70.0278 178.045 71.1307 176.473 71.444 174.801C71.6445 173.782 71.6069 171.707 71.3813 170.626C70.9301 168.451 69.3259 166.3 67.471 165.37C65.6036 164.427 65.7289 164.439 57.7956 164.389L50.6643 164.339V179.667ZM62.2448 171.393C63.2098 171.795 63.7738 172.877 63.6485 174.084C63.473 175.719 62.6709 176.259 60.227 176.347L58.6854 176.41V173.732V171.054L60.2395 171.129C61.1419 171.167 61.9816 171.28 62.2448 171.393ZM62.3074 183.112C62.6709 183.288 63.097 183.628 63.2474 183.879C63.8615 184.81 63.7487 186.344 63.0093 187.249C62.3701 188.029 61.9691 188.167 60.227 188.23L58.6854 188.293V185.489V182.685L60.1643 182.735C61.4176 182.773 61.7435 182.823 62.3074 183.112Z" fill="#297982"/>
<path d="M79.7658 179.579C76.8582 187.941 74.4769 194.832 74.4769 194.894C74.4769 194.945 76.3945 194.982 78.7507 194.982H83.0119L83.5508 193.272L84.0897 191.55L89.3786 191.587L94.655 191.625L95.1814 193.31L95.7078 194.982H100.019H104.33L99.593 180.824C96.9862 173.04 94.6676 166.149 94.4545 165.508L94.066 164.351L89.5666 164.364H85.0673L79.7658 179.579ZM90.8074 179.642C91.5468 181.867 92.1735 183.779 92.2111 183.867C92.2612 183.992 91.6471 184.03 89.4162 184.03C87.1854 184.03 86.5713 183.992 86.6214 183.867C86.6464 183.779 87.2606 181.867 87.9749 179.642C88.6893 177.403 89.316 175.58 89.3661 175.58C89.4162 175.58 90.068 177.403 90.8074 179.642Z" fill="#297982"/>
<path d="M108.429 179.667V194.982H116.726C121.275 194.982 125.01 194.957 125.01 194.932C125.01 194.907 125.448 193.147 126 191.047C126.539 188.934 126.99 187.149 126.99 187.073C126.99 186.973 125.311 186.935 121.651 186.935H116.324V175.643V164.351H112.377H108.429L108.429 179.667Z" fill="#297982"/>
<path d="M131.326 179.679V194.995L139.636 194.957L147.945 194.92L148.898 191.223C149.411 189.198 149.888 187.4 149.938 187.237L150.026 186.935H144.624H139.222V175.643V164.351H135.274H131.326V179.679Z" fill="#297982"/>
<path d="M154.224 179.667V194.982H162.559H170.893L171.896 191.047C172.46 188.884 172.911 187.073 172.911 187.023C172.911 186.973 170.517 186.935 167.584 186.935H162.258V185.35V183.766H165.416H168.575V179.742V175.706H165.416H162.258V174.059V172.411H167.058C169.702 172.411 171.858 172.386 171.858 172.348C171.858 172.311 171.595 170.525 171.269 168.375C170.943 166.237 170.68 164.452 170.68 164.414C170.68 164.389 166.97 164.351 162.446 164.351H154.224V179.667Z" fill="#297982"/>
<path d="M177.26 179.667V194.982H181.208H185.156V188.72C185.156 185.262 185.193 182.446 185.243 182.446C185.306 182.446 186.534 185.25 187.988 188.683L190.645 194.92L195.144 194.957C198.741 194.982 199.644 194.957 199.581 194.832C199.544 194.731 198.24 191.751 196.661 188.192L193.816 181.729L194.117 181.528C194.292 181.427 194.906 180.861 195.495 180.27C196.648 179.114 197.338 177.919 197.714 176.448C197.977 175.391 197.977 172.839 197.701 171.519C196.924 167.671 194.23 165.231 190.018 164.54C189.179 164.401 187.424 164.364 183.075 164.364L177.26 164.351V179.667ZM187.549 171.506C189.166 171.971 190.018 173.178 190.018 174.989C190.018 177.227 188.69 178.485 186.121 178.711L185.156 178.787V175.027C185.156 172.965 185.181 171.229 185.231 171.192C185.356 171.053 186.597 171.229 187.549 171.506Z" fill="#297982"/>
</svg>
