<?xml version="1.0" encoding="UTF-8"?>
<svg width="515px" height="222px" viewBox="0 0 515 222" version="1.1" xmlns="http://www.w3.org/2000/svg" xmlns:xlink="http://www.w3.org/1999/xlink">
    <title>mlp logo</title>
    <g id="Page-10" stroke="none" stroke-width="1" fill="none" fill-rule="evenodd">
        <g id="70318-MLP_Style_Guide_Final" transform="translate(-1096.000000, -431.000000)">
            <g id="Group-242" transform="translate(1096.000000, 431.000000)">
                <g id="mlp-logo" transform="translate(0.155000, 0.373200)">
                    <path d="M357.9971,0.7688 L426.2001,0.7688 L441.2051,0.7688 C482.3061,-0.4702 522.7021,28.4638 512.2901,88.9238 C503.0921,142.3318 457.1881,167.8458 414.1961,167.8458 L381.1691,167.8458 L375.6131,194.3038 C371.1191,209.5898 360.1121,220.0888 344.1781,220.0888 L310.4371,220.0888 L357.9971,0.7688 Z" id="Fill-234" fill="#F0612E"></path>
                    <path d="M299.7744,0 L240.9904,0 L212.1074,133.562 C208.3464,150.952 221.5974,167.374 239.3894,167.374 L306.9684,167.374 L318.2334,109.66 L277.0564,109.66 L299.7744,0 Z" id="Fill-236" fill="#0A2138"></path>
                    <path d="M191.437,0 L169.333,0 L164.7,0 L164.62,0.381 C154.885,1.919 146.386,8.142 142.065,17.22 L113.79,76.615 L115.504,0 L94.649,0 L74.329,0 L57.048,0 C44.368,0 33.42,8.88 30.804,21.288 L-1.13686838e-13,167.374 L58.521,167.374 L73.615,109.575 L70.585,167.374 L115.155,167.374 L140.584,109.575 L129.407,167.374 L188.763,167.374 L224.056,0 L191.437,0 Z" id="Fill-238" fill="#0A2138"></path>
                    <path d="M426.3489,40.3294 C403.6039,40.3294 385.1659,58.7674 385.1659,81.5124 C385.1659,104.2574 403.6039,122.6954 426.3489,122.6954 C449.0939,122.6954 467.5319,104.2574 467.5319,81.5124 C467.5319,58.7674 449.0939,40.3294 426.3489,40.3294 M453.3559,62.4214 C456.1039,61.6444 459.2329,64.2034 460.3439,68.1364 C461.4549,72.0684 460.1269,75.8864 457.3779,76.6624 C454.6289,77.4394 451.5009,74.8804 450.3899,70.9474 C449.2789,67.0154 450.6069,63.1974 453.3559,62.4214 M427.8609,44.8374 C431.9419,45.0454 435.1449,47.2864 435.0149,49.8444 C434.8849,52.4014 431.4709,54.3064 427.3899,54.0994 C423.3079,53.8914 420.1059,51.6504 420.2359,49.0924 C420.3659,46.5354 423.7789,44.6294 427.8609,44.8374 M392.3679,65.6644 C393.4979,61.7374 396.6399,59.1944 399.3849,59.9844 C402.1289,60.7744 403.4389,64.5984 402.3079,68.5254 C401.1779,72.4524 398.0369,74.9954 395.2919,74.2054 C392.5469,73.4154 391.2369,69.5914 392.3679,65.6644 M403.0599,106.0034 C401.1039,107.6564 397.3799,106.4664 394.7419,103.3454 C392.1039,100.2244 391.5509,96.3544 393.5059,94.7014 C395.4619,93.0484 399.1859,94.2374 401.8239,97.3584 C404.4629,100.4794 405.0159,104.3504 403.0599,106.0034 M428.8859,118.1134 C424.9529,119.2244 421.2009,118.1264 420.5049,115.6624 C419.8079,113.1984 422.4319,110.2994 426.3649,109.1884 C430.2969,108.0784 434.0499,109.1754 434.7459,111.6394 C435.4419,114.1044 432.8179,117.0024 428.8859,118.1134 M428.5469,90.9464 C423.7009,90.9464 419.7719,87.0174 419.7719,82.1704 C419.7719,77.3244 423.7009,73.3954 428.5469,73.3954 C433.3939,73.3954 437.3229,77.3244 437.3229,82.1704 C437.3229,87.0174 433.3939,90.9464 428.5469,90.9464 M457.3819,100.8284 C454.9269,104.0944 451.0849,105.3524 448.8019,103.6364 C446.5189,101.9204 446.6579,97.8804 449.1129,94.6134 C451.5679,91.3474 455.4089,90.0904 457.6929,91.8054 C459.9759,93.5224 459.8369,97.5614 457.3819,100.8284" id="Fill-240" fill="#FFFFFF"></path>
                </g>
            </g>
        </g>
    </g>
</svg>