<svg width="693" height="693" viewBox="0 0 693 693" fill="none" xmlns="http://www.w3.org/2000/svg">
<g clip-path="url(#clip0_4314_36075)">
<path d="M614 345.964C614 198.532 494.336 78.868 347.036 79.0001C200.048 79.1322 80.0481 198.447 80 344.499C79.952 494.045 198.763 613.24 347.865 613.264C494.685 613.276 614.012 493.445 614 345.964V345.964Z" fill="#0055B8"/>
<path d="M201.886 421.421V395.202L192.433 415.992H189.286L179.69 395.202V421.421H176.002V386.902H179.69L190.932 411.38L201.886 386.902H205.573V421.421H201.886Z" fill="white"/>
<path d="M225.235 421.421V386.902H228.922V421.421H225.235Z" fill="white"/>
<path d="M248.596 421.421V386.902H252.283V418.118H269.927V421.409H248.596V421.421Z" fill="white"/>
<path d="M310.932 421.421H307.485L299.822 393.785L292.159 421.421H288.712L279.884 386.902H283.812L290.55 414.731L298.165 386.902H301.468L309.083 414.731L315.821 386.902H319.748L310.92 421.421H310.932Z" fill="white"/>
<path d="M354.795 421.421L352.033 413.614H336.959L334.197 421.421H330.269L342.976 386.902H346.075L358.723 421.421H354.795V421.421ZM344.562 392.187L338.064 410.419H350.964L344.562 392.187Z" fill="white"/>
<path d="M385.519 421.71C378.541 421.71 373.496 416.905 373.496 410.023V386.902H377.183V409.735C377.183 414.972 380.486 418.407 385.519 418.407C390.551 418.407 393.902 414.96 393.902 409.735V386.902H397.59V410.023C397.59 416.905 392.497 421.71 385.519 421.71Z" fill="white"/>
<path d="M438.259 421.421L427.737 403.045L420.471 411.777V421.421H416.783V386.902H420.471V406.732L436.565 386.902H441.081L430.223 400.234L442.63 421.421H438.271H438.259Z" fill="white"/>
<path d="M457.98 421.421V386.902H479.407V390.193H461.667V402.36H476.789V405.651H461.667V418.106H479.407V421.397H457.98V421.421Z" fill="white"/>
<path d="M496.75 421.421V386.902H518.178V390.193H500.438V402.36H515.559V405.651H500.438V418.106H518.178V421.397H496.75V421.421Z" fill="white"/>
<path d="M571.302 470.085C568.203 467.191 563.951 465.329 557.225 464.392L548.529 463.155C545.526 462.747 543.148 461.606 541.707 460.26C540.158 458.807 539.533 456.849 539.533 454.988C539.533 449.919 543.256 445.679 550.919 445.679C555.784 445.679 561.369 446.304 566.029 450.748L575.133 441.752C568.827 435.65 561.477 433.164 551.34 433.164C535.401 433.164 525.685 442.376 525.685 455.516C525.685 461.726 527.45 466.482 530.957 470.001C534.272 473.208 538.921 475.178 545.238 476.103L554.138 477.34C557.549 477.856 559.207 478.577 560.66 479.922C562.209 481.375 562.93 483.537 562.93 486.132C562.93 492.029 558.378 495.236 549.898 495.236C543.064 495.236 536.759 493.686 532.098 489.026L522.79 498.335C530.033 505.685 538.512 508.063 549.694 508.063C553.586 508.063 557.261 507.547 560.576 506.55C566.413 498.767 571.83 490.648 576.803 482.24C576.262 477.28 574.521 473.136 571.314 470.097L571.302 470.085Z" fill="white"/>
<path d="M287.595 495.236C280.761 495.236 274.455 493.686 269.795 489.026L260.486 498.335C267.729 505.685 276.208 508.063 287.391 508.063C302.8 508.063 314.703 499.992 314.703 485.711C314.703 479.189 312.949 473.809 309.01 470.085C305.911 467.191 301.659 465.329 294.933 464.392L286.237 463.155C283.235 462.747 280.857 461.606 279.415 460.26C277.866 458.807 277.241 456.849 277.241 454.988C277.241 449.919 280.965 445.679 288.628 445.679C293.492 445.679 299.077 446.304 303.737 450.748L312.841 441.752C306.536 435.65 299.185 433.164 289.048 433.164C273.11 433.164 263.393 442.376 263.393 455.516C263.393 461.726 265.159 466.482 268.666 470.001C271.981 473.208 276.629 475.178 282.947 476.103L291.847 477.34C295.258 477.856 296.915 478.577 298.368 479.922C299.918 481.375 300.638 483.537 300.638 486.132C300.638 492.029 296.086 495.236 287.607 495.236H287.595Z" fill="white"/>
<path d="M381.952 507.44V433.777H367.575V463.888H342.641V433.777H328.264V507.44H342.641V476.608H367.575V507.44H381.952Z" fill="white"/>
<path d="M183.929 507.44V433.777H169.757L150.624 473.605L131.382 433.777H117.209V482.145C121.653 489.688 126.458 496.978 131.586 504.016V464.501L145.759 492.438H155.488L169.565 464.501V507.44H183.941H183.929Z" fill="white"/>
<path d="M447.651 446.605V433.777H399.127V507.44H447.651V494.612H413.516V476.716H442.582V463.888H413.516V446.605H447.651Z" fill="white"/>
<path d="M193.034 507.44H208.035L212.479 494.408H238.651L242.999 507.44H258L231.096 433.777H219.818L193.022 507.44H193.034ZM234.832 482.301H216.515L225.823 455.505L234.832 482.301Z" fill="white"/>
<path d="M514.49 456.334C514.49 444.023 505.59 433.777 490.589 433.777H461.727V507.44H476.104V478.061H486.445L500.822 507.44H517.481L501.026 475.671C508.173 473.089 514.478 466.675 514.478 456.322L514.49 456.334ZM489.664 466.062H476.116V446.617H489.664C495.97 446.617 500.114 450.653 500.114 456.346C500.114 462.039 495.97 466.074 489.664 466.074V466.062Z" fill="white"/>
<path d="M292.014 297.884C292.014 297.884 292.123 297.884 292.327 297.908C295.041 298.712 297.912 299.073 300.83 298.977C310.091 300.55 324.023 304.261 329.332 312.717C329.332 312.717 329.332 312.657 329.356 312.561L352.285 353.926L373.82 342.011L350.891 300.634C346.471 291.758 350.483 278.066 353.954 269.334C355.684 266.776 356.945 263.977 357.689 261.071C359.227 255.113 358.602 248.724 355.455 243.103L318.138 176.491C311.94 165.441 297.383 161.825 285.613 168.419L250.709 187.997C238.939 194.591 234.435 208.908 240.632 219.958L277.95 286.57C281.085 292.167 286.177 296.01 292.026 297.824C292.026 297.872 292.026 297.896 292.026 297.896L292.014 297.884Z" fill="white"/>
<path d="M336.226 260.675C336.226 260.675 336.274 260.771 336.37 260.951C337.067 263.701 338.22 266.356 339.794 268.806C343.169 277.562 347.108 291.446 342.544 300.322C342.544 300.322 342.604 300.298 342.688 300.262L318.847 341.099L340.094 353.518L363.947 312.657C369.316 304.322 383.14 300.779 392.413 299.301C395.5 299.482 398.55 299.133 401.433 298.293C407.342 296.563 412.519 292.768 415.738 287.183L453.932 221.063C460.262 210.085 455.938 195.72 444.251 188.982L409.588 168.972C397.902 162.234 383.297 165.657 376.967 176.635L338.773 242.755C335.566 248.304 334.857 254.657 336.286 260.603C336.25 260.627 336.226 260.651 336.226 260.651V260.675Z" fill="white"/>
<path d="M457.091 184.296C454.184 182.686 452.971 182.842 451.638 185.797C450.449 188.427 448.791 190.842 447.362 193.364C446.641 194.637 445.957 195.706 444.299 196.126C435.784 198.288 427.304 200.606 417.791 203.129C426.451 188.115 434.522 174.062 442.666 160.034C443.843 158.016 444.96 156.491 441.789 155.073C439.243 153.932 437.597 152.191 435.471 156.082C428.457 168.91 420.998 181.497 413.648 194.145C412.891 195.442 412.603 197.195 410.573 197.916C409.096 192.607 408.063 187.202 406.081 182.182C403.018 174.423 403.282 167.445 408.867 160.947C410.441 159.109 411.149 157.343 408.063 155.974C405.6 154.881 403.943 153.128 401.769 156.995C388.821 179.948 375.525 202.708 362.35 225.541C357.317 234.249 352.26 242.932 346.94 252.121C345.691 250.055 344.778 248.613 343.925 247.136C326.629 217.169 309.322 187.214 292.062 157.223C290.705 154.857 289.948 153.44 286.645 155.434C283.355 157.416 283.186 158.797 285.192 161.595C286.79 163.817 287.931 166.364 289.372 168.706C290.165 170.003 290.621 171.264 290.189 172.801C287.823 181.245 285.492 189.689 283.102 198.288C281.661 197.616 281.385 196.391 280.832 195.43C273.205 182.266 265.446 169.186 258.132 155.866C256.21 152.371 254.733 153.8 252.451 154.833C249.64 156.106 249.496 157.452 251.033 160.046C258.552 172.753 265.891 185.581 273.229 198.396C273.95 199.657 275.307 200.762 274.875 202.768C270.023 201.531 265.338 200.03 260.534 199.189C251.862 197.664 244.644 194.457 241.701 185.293C240.488 181.509 238.518 183.551 236.5 184.536C234.266 185.629 232.861 186.602 234.711 189.316C236.657 192.187 238.242 195.298 239.972 198.312C256.402 226.778 272.869 255.231 289.216 283.757C290.861 286.616 292.831 288.201 296.098 288.838C306.175 290.783 316.192 293.053 326.245 295.071C328.539 295.528 330.077 296.452 331.218 298.626C333.8 303.539 336.562 308.355 339.469 313.087L341.187 316.438C341.259 316.595 341.343 316.739 341.415 316.895L342.027 318.084L323.831 349.612L330.689 353.576L346.339 326.467L363.707 360.206L370.757 356.579L351.155 318.504C351.396 318.144 351.612 317.736 351.852 317.315C355.335 311.142 359.023 305.064 362.434 298.855C363.671 296.609 365.232 295.528 367.742 295.023C378.096 292.945 388.389 290.555 398.742 288.513C401.277 288.009 402.73 286.892 403.991 284.706C422.091 253.19 440.252 221.697 458.508 190.265C460.153 187.443 460.31 186.145 457.079 184.356L457.091 184.296ZM387.848 197.544C390.851 192.199 393.938 186.902 397.493 180.728C400.123 190.265 402.442 198.697 404.784 207.104C405.12 208.305 404.964 209.326 404.339 210.395C401.337 215.476 398.382 220.58 394.971 226.43C392.413 217.013 390.034 208.341 387.716 199.645C387.536 198.997 387.536 198.096 387.848 197.544V197.544ZM372.15 224.544C375.153 219.451 378.084 214.311 381.579 208.257C383.128 213.65 384.029 218.394 385.843 222.754C389.698 232.051 389.122 240.482 382.468 248.313C381.206 249.803 380.438 251.7 378.864 254.391C376.282 244.842 374.072 236.507 371.742 228.195C371.358 226.814 371.43 225.757 372.15 224.532V224.544ZM386.791 257.67C386.791 257.79 386.791 257.922 386.791 258.042C386.671 258.018 386.563 258.006 386.443 257.982C386.563 257.874 386.671 257.778 386.791 257.67ZM322.101 225.349C322.678 226.333 322.342 227.294 322.065 228.279C319.759 236.591 317.465 244.902 314.859 254.343C311.208 248.013 308.109 242.668 305.058 237.299C304.734 236.723 304.542 235.87 304.71 235.257C307.064 226.514 309.478 217.794 312.12 208.233C315.748 214.455 318.931 219.908 322.101 225.361V225.349ZM288.867 207.452C291.21 198.901 293.624 190.361 296.29 180.849C299.797 186.866 302.812 192.043 305.839 197.207C306.403 198.168 306.235 199.165 305.971 200.15C303.677 208.618 301.359 217.097 298.8 226.49C295.245 220.34 292.098 214.959 289.024 209.53C288.711 208.978 288.699 208.089 288.867 207.452V207.452ZM262.924 221.877C259.982 216.785 257.051 211.692 253.508 205.531C259.549 207.092 264.414 208.918 269.434 209.518C278.43 210.587 284.508 214.851 287.762 223.319C288.567 225.421 289.924 227.318 291.618 230.405C281.829 227.871 273.35 225.673 264.858 223.499C263.933 223.259 263.369 222.646 262.936 221.889L262.924 221.877ZM274.238 241.647C273.133 238.885 271.32 236.411 269.29 232.867C278.875 235.39 287.354 237.624 295.834 239.846C296.855 240.11 297.647 240.554 298.2 241.527C301.179 246.776 304.217 252.001 307.821 258.27C301.118 256.553 295.557 254.595 289.828 253.79C282.069 252.697 277.109 248.818 274.238 241.659V241.647ZM298.332 280.995C296.843 280.694 296.206 279.637 295.545 278.496C292.327 272.863 289.096 267.23 285.42 260.804C291.762 262.45 297.323 264.432 303.04 265.236C310.931 266.353 316.156 270.137 319.075 277.547C320.216 280.442 322.089 283.036 323.975 286.387C314.943 284.478 306.643 282.712 298.332 280.995ZM331.001 282.268C327.494 276.226 324.636 271.206 321.669 266.257C320.696 264.624 320.684 263.159 321.201 261.345C323.507 253.322 325.645 245.238 328.107 236.218C330.473 240.122 332.19 243.665 334.545 246.728C338.94 252.421 339.397 258.114 336.574 264.72C334.28 270.101 332.959 275.902 330.977 282.256L331.001 282.268ZM336.743 290.699C339.973 280.454 343.18 270.185 347.252 259.844C349.102 265.609 350.387 271.662 352.945 277.091C356.044 283.685 356.752 289.811 354.963 295.648L348.729 306.433C348.189 307.31 347.66 308.331 346.856 309.664C343.336 303.623 340.166 298.17 336.995 292.729C336.61 292.081 336.502 291.468 336.743 290.699ZM362.782 282.244C360.019 273.5 357.461 265.393 354.879 257.273C354.567 256.276 354.422 255.291 354.975 254.331C358.362 248.481 361.749 242.632 365.544 236.062C368.127 245.371 370.457 253.802 372.787 262.234C373.111 263.411 372.979 264.492 372.355 265.573C369.244 270.942 366.157 276.322 362.758 282.232L362.782 282.244ZM397.481 279.637C397.025 280.442 396.316 280.802 395.391 280.995C387.092 282.712 378.816 284.466 369.724 286.375C373.327 280.094 376.558 274.497 379.741 268.888C380.246 267.987 381.122 267.903 381.927 267.699C390.419 265.453 398.898 263.219 408.375 260.72C404.435 267.555 400.952 273.596 397.469 279.637H397.481ZM414.669 249.755C414.32 250.343 413.756 251.064 413.179 251.184C404.375 253.069 395.944 256.529 386.912 257.465C389.11 251.664 392.845 246.704 395.679 241.263C396.052 240.554 396.604 240.218 397.337 240.026C406.105 237.72 414.861 235.39 424.481 232.843C420.902 239.017 417.803 244.398 414.657 249.755H414.669ZM430.523 222.286C430.259 222.742 429.706 223.211 429.202 223.343C420.578 225.625 411.942 227.859 401.997 230.441C405.648 224.087 408.579 218.947 411.558 213.854C411.894 213.29 412.531 212.689 413.143 212.521C421.767 210.227 430.403 208.017 440.216 205.483C436.624 211.716 433.598 217.013 430.511 222.286H430.523Z" fill="#0055B8"/>
<path d="M321.993 139.652C317.105 153.921 324.708 169.451 338.977 174.34C353.246 179.228 368.776 171.625 373.664 157.356C378.552 143.088 370.949 127.558 356.681 122.669C342.412 117.781 326.882 125.384 321.993 139.652V139.652ZM368.643 147.003C370.145 147.231 371.082 149.213 370.745 151.435C370.409 153.657 368.92 155.267 367.43 155.038C365.929 154.81 364.992 152.828 365.328 150.606C365.665 148.384 367.154 146.775 368.643 147.003ZM351.12 166.076C353.402 165.632 355.48 166.449 355.756 167.902C356.044 169.355 354.423 170.893 352.141 171.337C349.858 171.781 347.781 170.965 347.504 169.511C347.216 168.058 348.838 166.521 351.12 166.076ZM357.978 131.113C356.188 129.563 355.72 128.374 356.741 127.353C357.509 126.573 359.503 127.041 360.92 128.098C363.215 129.804 363.551 131.221 362.878 132.086C362.206 132.95 359.479 132.422 357.978 131.125V131.113ZM341.235 144.048C342.16 141.346 345.102 139.905 347.817 140.83C350.531 141.754 351.96 144.697 351.036 147.411C350.111 150.126 347.168 151.555 344.454 150.63C341.751 149.706 340.31 146.763 341.235 144.048ZM327.518 160.035C328.443 159.134 330.485 159.711 332.083 161.332C333.68 162.953 334.22 165.007 333.296 165.908C332.371 166.809 330.329 166.232 328.732 164.611C327.134 162.989 326.594 160.936 327.518 160.035ZM339.181 124.363C341.031 123.858 342.724 124.183 342.964 125.071C343.205 125.972 341.907 127.101 340.058 127.594C338.208 128.086 336.514 127.774 336.274 126.885C336.034 125.984 337.331 124.855 339.181 124.363ZM323.795 141.082C324.504 139.004 326.053 137.659 327.254 138.067C328.455 138.475 328.852 140.493 328.143 142.571C327.434 144.649 325.885 145.994 324.684 145.586C323.483 145.177 323.086 143.16 323.795 141.082Z" fill="#B8D637"/>
</g>
<defs>
<clipPath id="clip0_4314_36075">
<rect width="534" height="534.264" fill="white" transform="translate(80 79)"/>
</clipPath>
</defs>
</svg>
